<?xml version="1.0" standalone="no"?>
<!DOCTYPE svg PUBLIC "-//W3C//DTD SVG 20010904//EN"
 "http://www.w3.org/TR/2001/REC-SVG-20010904/DTD/svg10.dtd">
<svg version="1.0" xmlns="http://www.w3.org/2000/svg"
 width="700.000000pt" height="700.000000pt" viewBox="0 0 700.000000 700.000000"
 preserveAspectRatio="xMidYMid meet">
<metadata>
Created by potrace 1.11, written by Peter Selinger 2001-2013
</metadata>
<g transform="translate(0.000000,700.000000) scale(0.100000,-0.100000)"
fill="#000000" stroke="none">
<path d="M3319 6926 c-2 -2 -42 -6 -89 -10 -390 -27 -835 -149 -1192 -326 -54
-27 -98 -46 -98 -42 0 4 -4 2 -8 -4 -4 -6 -32 -24 -62 -41 -87 -47 -288 -174
-325 -205 -5 -5 -43 -33 -83 -63 -40 -30 -79 -60 -86 -67 -7 -7 -35 -31 -62
-53 -75 -61 -333 -322 -388 -392 -27 -35 -53 -63 -58 -63 -5 0 -7 -4 -4 -8 3
-5 -14 -29 -37 -54 -23 -25 -43 -52 -45 -59 -2 -7 -13 -21 -24 -31 -12 -10
-17 -18 -13 -18 5 0 -1 -10 -12 -22 -11 -13 -35 -48 -53 -78 -18 -30 -35 -57
-39 -60 -3 -3 -17 -25 -30 -50 -13 -25 -29 -52 -35 -60 -6 -8 -22 -36 -35 -62
-13 -26 -28 -45 -34 -41 -6 3 -7 1 -3 -5 6 -11 -41 -121 -57 -133 -5 -3 -8 -8
-7 -10 1 -2 -4 -17 -11 -34 -7 -16 -13 -32 -14 -35 -20 -54 -28 -69 -36 -64
-5 3 -6 -1 -4 -9 3 -7 -2 -31 -11 -53 -9 -21 -21 -50 -27 -64 -5 -14 -12 -34
-14 -45 -2 -10 -7 -22 -11 -25 -4 -3 -8 -12 -9 -20 -2 -17 -71 -267 -80 -290
-4 -8 -6 -18 -5 -22 1 -4 -5 -33 -13 -65 -21 -85 -31 -144 -34 -196 0 -16 -4
-26 -9 -24 -4 3 -5 -15 -3 -40 2 -36 0 -44 -10 -38 -11 6 -12 5 -2 -5 10 -11
9 -18 -5 -34 -9 -11 -11 -16 -4 -12 8 5 12 -1 12 -18 0 -14 -5 -26 -11 -26 -8
0 -8 -4 -2 -12 6 -8 7 -40 3 -78 -4 -36 -7 -129 -8 -208 -1 -78 -4 -147 -7
-152 -3 -5 -1 -11 3 -14 9 -5 16 -85 17 -183 0 -29 4 -53 9 -53 5 0 7 -3 4 -6
-4 -3 -2 -19 2 -35 5 -17 5 -31 -1 -34 -5 -4 -9 -12 -9 -18 0 -7 4 -6 10 3 8
12 10 11 10 -7 0 -13 -6 -23 -12 -23 -7 0 -4 -6 7 -12 19 -11 19 -11 0 -19
-19 -7 -19 -8 -1 -8 13 -1 17 -6 13 -21 -3 -11 -1 -20 5 -20 5 0 8 -6 5 -12
-2 -7 -9 -13 -15 -13 -5 0 -14 -3 -18 -7 -3 -4 3 -6 14 -3 18 3 22 -2 28 -33
3 -20 10 -52 15 -71 6 -23 5 -39 -3 -48 -9 -11 -8 -13 1 -11 14 3 21 -17 24
-64 1 -14 4 -24 6 -22 3 3 11 -19 19 -48 7 -29 15 -57 16 -63 2 -5 6 -19 10
-30 5 -11 14 -37 22 -58 8 -21 12 -43 9 -48 -4 -5 -1 -9 5 -9 7 0 9 -7 6 -16
-3 -8 -2 -13 3 -10 11 7 24 -41 15 -56 -5 -7 -2 -8 6 -3 10 6 12 4 7 -8 -3
-10 -3 -17 2 -17 4 0 15 -18 24 -40 10 -27 11 -38 4 -34 -7 3 -4 -1 6 -9 14
-12 15 -16 4 -26 -8 -6 -18 -7 -22 -3 -5 4 -5 1 -1 -6 5 -8 12 -10 19 -3 8 6
16 4 24 -4 10 -11 10 -15 0 -18 -9 -4 -9 -6 0 -6 17 -1 96 -168 87 -182 -4 -7
-3 -9 4 -5 6 4 20 -14 34 -44 13 -27 27 -50 33 -50 5 0 3 -5 -5 -10 -13 -9
-13 -10 0 -10 8 0 21 -9 28 -21 8 -12 9 -19 4 -15 -5 3 -9 -1 -9 -8 0 -8 7
-12 16 -9 11 3 10 0 -4 -12 -20 -17 -20 -17 3 -10 16 5 22 2 22 -9 0 -9 6 -16
13 -16 8 0 7 -4 -3 -10 -13 -8 -12 -10 3 -10 10 0 21 -8 24 -18 4 -9 10 -19
14 -22 4 -3 9 -11 11 -18 2 -8 15 -27 31 -44 15 -17 27 -34 27 -39 0 -5 8 -17
18 -28 29 -31 53 -65 65 -88 5 -13 14 -23 19 -23 5 0 6 -4 3 -10 -3 -5 1 -10
10 -10 9 0 19 -9 22 -20 3 -11 10 -20 15 -20 6 0 7 -12 4 -27 -5 -23 -4 -25 5
-10 10 16 12 16 32 -10 12 -15 27 -32 35 -36 8 -5 10 -17 7 -30 -4 -14 -3 -18
3 -9 6 10 13 8 27 -8 17 -18 17 -23 5 -31 -11 -8 -9 -9 8 -4 23 7 31 -9 10
-19 -7 -3 -2 -3 11 0 17 4 22 2 19 -7 -3 -8 -14 -13 -24 -11 -15 2 -16 1 -4
-7 10 -7 19 -6 28 2 21 17 45 -18 31 -45 -6 -11 -8 -22 -6 -25 3 -2 8 5 12 17
8 25 26 22 41 -9 6 -12 15 -22 20 -21 5 1 10 -3 12 -8 1 -5 -13 -8 -33 -7 -19
2 -33 -1 -30 -4 2 -4 14 -7 27 -6 13 1 31 -2 42 -7 14 -8 17 -7 10 4 -4 7 10
-3 32 -22 23 -19 39 -38 37 -42 -2 -5 2 -8 9 -8 16 0 49 -36 41 -44 -4 -3 1
-6 11 -6 19 0 46 -23 46 -39 0 -5 5 -13 12 -17 7 -4 8 -3 4 4 -14 23 13 12 32
-13 11 -13 23 -21 27 -17 5 4 5 -1 2 -10 -4 -12 -2 -15 9 -11 7 3 14 0 14 -7
0 -6 5 -8 10 -5 6 3 13 -1 16 -9 3 -9 12 -16 19 -16 6 0 24 -11 38 -24 14 -13
28 -21 31 -18 3 3 6 0 6 -6 0 -18 -18 -14 -29 6 -9 14 -10 13 -7 -8 3 -14 5
-26 5 -28 1 -1 10 2 21 8 19 10 31 5 109 -47 2 -1 -4 -9 -13 -18 -20 -21 -21
-32 -1 -15 14 12 19 7 16 -13 -1 -5 3 -6 9 -2 8 5 8 11 0 20 -8 9 -8 15 0 20
5 3 10 3 10 -2 0 -4 14 -14 30 -21 17 -8 36 -19 43 -25 7 -7 29 -21 50 -31 20
-11 37 -23 37 -28 0 -5 4 -6 10 -3 5 3 10 0 10 -8 0 -8 7 -18 16 -21 26 -10
29 -7 8 10 -18 14 -18 14 6 3 35 -17 35 -16 9 -39 l-24 -21 27 16 c23 14 33
15 63 5 19 -6 35 -16 35 -21 0 -6 5 -7 10 -4 6 3 10 1 10 -5 0 -7 -8 -9 -20
-5 -11 3 -20 3 -20 -2 0 -5 11 -10 25 -11 14 -1 25 4 25 11 0 9 2 9 8 -1 5 -7
19 -15 32 -17 25 -5 52 -25 34 -25 -5 0 -15 4 -22 10 -7 5 -6 2 2 -7 13 -14
17 -14 32 -2 15 12 17 12 9 0 -6 -11 -4 -13 7 -8 24 9 30 -4 10 -20 -15 -13
-15 -13 5 -3 24 11 73 4 73 -11 0 -13 -14 -11 -28 3 -8 8 -12 8 -12 1 0 -6 7
-14 16 -17 8 -3 12 -12 9 -18 -4 -7 2 -2 12 10 l19 24 17 -24 c10 -14 14 -16
11 -5 -6 17 11 25 18 8 2 -6 17 -12 33 -14 17 -2 30 -10 30 -17 0 -7 6 -15 14
-18 8 -3 11 0 7 7 -4 6 -2 11 3 11 6 0 11 -5 11 -11 0 -5 5 -7 10 -4 6 3 10 2
10 -3 0 -5 10 -8 23 -8 15 1 21 -4 19 -14 -3 -12 -1 -13 9 -3 16 16 29 17 29
2 0 -5 -4 -7 -10 -4 -5 3 -10 1 -10 -4 0 -13 17 -14 25 -2 3 6 18 6 38 0 33
-10 63 -18 84 -23 7 -1 15 -5 19 -8 3 -4 12 -4 20 -1 8 3 14 1 14 -5 0 -5 11
-10 25 -11 48 -3 54 -4 49 -12 -2 -5 -12 -5 -22 -2 -18 7 -17 5 12 -17 13 -10
17 -10 12 -2 -9 15 9 18 77 11 15 -2 27 -7 27 -12 0 -5 7 -7 15 -3 19 7 47 -3
39 -15 -3 -5 0 -9 5 -9 6 0 11 5 11 10 0 6 5 10 11 10 5 0 8 -4 5 -8 -2 -4 4
-13 15 -20 11 -7 19 -8 19 -2 0 5 -4 10 -10 10 -5 0 -10 5 -10 12 0 9 3 9 11
1 6 -6 19 -9 28 -5 14 5 14 4 2 -11 -9 -12 -10 -17 -2 -17 6 0 14 6 17 14 4
11 12 12 27 7 12 -5 34 -7 50 -5 19 2 27 -2 27 -12 0 -8 -4 -12 -10 -9 -5 3
-10 2 -10 -3 0 -5 12 -9 26 -9 16 0 21 2 14 7 -19 12 3 20 40 16 18 -2 36 -10
41 -17 6 -10 9 -11 9 -2 0 7 11 12 25 11 14 -1 24 -7 21 -13 -2 -6 5 -11 15
-11 11 0 15 4 9 11 -5 6 2 10 22 10 25 1 27 -1 14 -11 -9 -6 -16 -14 -16 -18
0 -4 14 3 32 15 17 13 28 18 24 11 -4 -7 -2 -12 4 -12 6 0 8 -5 4 -12 -4 -7
-3 -8 4 -4 6 4 9 14 6 24 -5 14 -4 14 4 3 9 -12 13 -12 26 -2 11 10 16 10 16
2 0 -8 5 -9 18 -2 10 5 24 6 32 1 7 -4 21 -7 32 -5 10 2 24 -6 33 -18 8 -12
15 -16 15 -10 0 7 -4 15 -10 18 -5 3 -10 11 -10 17 0 7 4 7 13 -1 10 -7 17 -7
24 0 8 8 13 8 17 0 4 -6 0 -11 -8 -11 -9 0 -16 -5 -16 -10 0 -7 6 -7 19 0 13
7 22 7 26 0 4 -7 13 -7 26 0 14 8 19 7 19 -2 1 -7 6 -4 13 7 8 14 24 21 52 22
32 2 36 0 19 -7 -25 -10 -41 -30 -25 -30 6 0 11 4 11 9 0 16 34 18 63 3 16 -7
31 -11 34 -9 2 3 -5 8 -16 12 -12 3 -19 11 -16 16 3 5 -1 6 -9 3 -9 -3 -16 -2
-16 3 0 15 90 9 101 -7 9 -13 10 -12 5 2 -3 10 -1 20 4 23 6 4 10 1 10 -4 0
-6 5 -11 11 -11 5 0 8 4 5 8 -2 4 5 9 16 9 20 2 20 1 2 -19 -11 -12 -13 -18
-5 -13 11 6 13 4 8 -9 -4 -11 -3 -15 4 -11 6 4 8 14 5 22 -4 9 -1 13 6 10 7
-2 12 -13 10 -23 -2 -16 -1 -16 7 -4 7 9 7 18 1 24 -21 21 -10 34 25 31 20 -1
35 3 35 9 1 6 6 2 13 -9 7 -12 23 -21 40 -21 22 -1 25 1 16 12 -14 17 -23 18
-13 2 5 -8 2 -9 -10 -5 -10 4 -20 7 -22 7 -2 0 -4 4 -4 10 0 5 7 7 15 4 8 -4
15 -1 15 6 0 9 7 7 20 -5 16 -15 23 -16 33 -6 9 10 8 11 -5 6 -10 -4 -18 -3
-18 2 0 5 6 10 13 11 6 0 22 3 35 6 22 5 31 -8 12 -19 -6 -3 -10 -10 -10 -15
0 -6 14 4 30 22 17 17 30 27 30 23 0 -4 6 -3 13 2 6 6 20 9 30 8 9 -2 17 1 17
6 0 9 61 5 83 -6 6 -4 4 0 -6 8 -16 13 -15 15 13 20 17 4 31 6 33 5 1 -1 11 4
23 10 14 8 24 8 31 1 8 -8 13 -7 18 2 6 8 4 10 -6 4 -8 -5 -10 -4 -6 0 4 5 13
10 20 11 40 9 58 14 69 20 7 5 9 2 4 -7 -4 -8 -1 -7 6 2 15 19 76 38 97 31 9
-3 11 0 6 9 -6 11 -5 12 6 1 16 -15 29 -16 29 -1 0 5 -4 7 -10 4 -5 -3 -10 -1
-10 5 0 6 11 8 28 4 21 -4 24 -3 12 5 -9 6 -10 11 -3 11 6 0 20 3 30 6 15 5
15 4 3 -5 -9 -7 -11 -11 -3 -11 7 0 16 6 20 13 12 19 74 46 91 39 9 -3 13 -1
9 5 -5 9 42 37 63 38 3 0 12 5 20 10 8 5 23 8 34 6 10 -1 15 2 12 7 -3 6 1 12
9 16 8 3 18 -2 23 -11 8 -14 10 -13 15 1 4 10 3 15 -3 11 -6 -3 -10 -2 -10 4
0 5 10 13 22 17 12 3 30 15 41 25 11 10 24 16 29 13 5 -4 20 4 32 15 19 18 25
19 29 8 3 -8 -2 -25 -11 -38 -15 -22 -15 -23 1 -11 9 8 22 10 29 6 8 -5 8 -1
-2 11 -14 17 -13 18 5 12 19 -7 19 -6 3 7 -10 7 -18 18 -18 24 0 14 28 23 35
12 4 -6 12 -10 18 -9 9 0 9 2 0 6 -7 2 -13 9 -13 14 0 4 7 6 15 2 9 -3 15 -2
13 3 -2 5 2 11 7 13 6 2 15 11 21 19 10 13 13 13 23 -4 11 -18 12 -18 6 3 -7
25 21 46 66 52 5 0 8 5 5 10 -7 11 22 23 35 15 5 -3 8 0 7 7 -2 6 3 14 11 17
9 3 11 0 6 -8 -6 -9 -4 -11 5 -5 10 6 12 3 7 -11 -7 -18 -6 -18 6 -2 11 14 16
15 27 5 12 -10 12 -9 1 5 -7 10 -17 16 -21 13 -4 -3 -10 2 -14 10 -3 8 -1 15
5 15 6 0 33 18 59 40 37 31 49 37 59 27 10 -9 11 -8 5 7 -5 13 -4 17 4 12 7
-4 12 -2 12 4 0 7 10 20 22 30 23 18 38 18 38 -1 0 -6 -5 -7 -12 -3 -7 5 -8 3
-3 -6 6 -10 10 -10 20 3 9 13 15 14 25 4 12 -10 12 -9 1 5 -7 10 -17 15 -22
12 -5 -3 -9 0 -9 6 0 11 63 70 65 60 0 -3 8 2 17 10 9 8 14 18 11 23 -4 6 4 8
23 6 4 0 12 10 18 23 6 12 23 28 36 35 14 7 21 13 15 13 -5 0 2 11 17 25 15
14 32 25 38 25 6 0 8 5 5 10 -3 6 1 10 9 10 9 0 15 4 13 9 -1 5 32 44 73 87
41 44 83 92 93 107 10 16 24 26 32 24 8 -4 11 1 9 11 -2 10 13 36 33 59 60 66
86 98 86 103 0 3 2 11 4 18 4 9 9 8 18 -4 10 -15 11 -13 8 12 -2 21 4 37 24
59 16 17 24 24 18 15 -6 -10 -2 -8 13 4 22 19 30 32 13 21 -5 -3 -12 -1 -16 5
-3 5 -2 10 2 10 5 0 31 38 58 85 31 53 55 83 62 80 17 -6 17 11 1 19 -10 5
-10 7 0 12 6 3 12 12 12 20 0 8 8 14 18 14 14 0 15 2 2 10 -13 9 -7 14 12 11
4 0 5 6 2 14 -4 9 0 15 9 15 9 0 19 4 22 10 4 6 -1 7 -11 3 -15 -6 -15 -3 2
28 10 19 23 37 27 40 4 3 7 12 5 20 -2 8 2 13 8 12 7 -1 10 6 7 16 -2 10 2 25
11 33 8 9 12 18 9 22 -3 3 1 8 10 12 9 3 13 12 10 21 -5 13 -2 15 15 11 12 -4
25 -2 28 3 3 5 2 9 -3 8 -19 -3 -33 2 -33 12 0 5 4 7 10 4 5 -3 7 0 5 8 -9 21
43 129 58 121 9 -6 9 -5 0 7 -8 11 -4 36 21 112 18 54 35 95 38 92 3 -3 4 5 3
17 -3 31 14 90 24 84 4 -3 5 8 3 25 -3 18 0 29 7 29 7 0 9 5 6 11 -4 5 1 20
12 32 15 19 16 20 1 8 -17 -13 -26 -2 -10 13 7 8 9 14 11 47 1 13 5 18 14 13
8 -5 8 -2 -2 9 -12 15 -11 17 5 18 11 1 23 1 27 0 5 -1 6 3 2 8 -3 6 -12 8
-20 4 -9 -3 -15 1 -15 10 0 8 6 18 13 20 9 4 9 6 -1 6 -7 1 -10 5 -7 11 11 17
29 139 27 183 0 9 6 17 14 17 8 0 14 5 14 11 0 5 -4 7 -10 4 -5 -3 -10 3 -10
15 0 12 4 19 9 15 5 -3 13 0 17 6 4 7 3 9 -4 5 -15 -9 -27 13 -13 27 7 7 7 14
0 24 -7 7 -7 13 -2 13 5 0 8 25 8 55 0 45 3 54 15 50 13 -4 13 -4 0 7 -19 17
-17 188 3 188 9 0 9 2 0 8 -15 9 -23 75 -12 93 4 7 5 18 1 24 -4 5 -7 31 -8
56 -1 26 -4 58 -8 73 -4 18 -2 26 6 26 10 0 10 2 0 8 -8 6 -13 35 -15 80 -1
40 -5 72 -8 72 -3 0 -5 12 -5 28 1 15 -1 34 -5 42 -12 29 -20 96 -10 80 6 -8
11 -10 11 -4 0 6 -7 17 -15 24 -9 7 -14 15 -12 17 3 2 -2 29 -9 60 -7 31 -10
61 -7 66 3 6 1 7 -4 4 -10 -6 -23 43 -26 101 -1 12 -5 22 -9 22 -4 0 -10 17
-14 38 -4 20 -10 42 -15 48 -5 6 -10 27 -11 46 -2 20 -6 34 -9 32 -4 -2 -10 8
-14 24 -11 44 -83 224 -126 316 -10 21 -16 42 -14 46 3 4 -2 11 -11 14 -10 4
-14 14 -11 26 3 11 1 18 -3 15 -11 -7 -41 55 -33 68 3 5 2 7 -4 4 -5 -3 -22
17 -37 46 -42 81 -56 104 -130 217 -63 97 -163 238 -176 250 -3 3 -39 46 -80
95 -41 50 -142 158 -224 240 -83 83 -149 155 -147 160 1 6 0 7 -4 3 -4 -4 -62
37 -129 90 -130 104 -141 112 -256 189 -90 60 -160 103 -256 153 -39 21 -79
42 -90 48 -87 47 -382 162 -454 177 -8 2 -49 13 -90 24 -129 35 -264 61 -425
81 -49 6 -106 13 -125 16 -44 6 -555 16 -561 10z m351 -6767 c0 -10 -27 -19
-34 -12 -11 12 -6 19 14 19 11 0 20 -3 20 -7z"/>
<path d="M215 4409 c-4 -6 -5 -12 -2 -15 2 -3 7 2 10 11 7 17 1 20 -8 4z"/>
<path d="M150 4079 c0 -5 5 -7 10 -4 6 3 10 8 10 11 0 2 -4 4 -10 4 -5 0 -10
-5 -10 -11z"/>
<path d="M6907 3879 c7 -7 15 -10 18 -7 3 3 -2 9 -12 12 -14 6 -15 5 -6 -5z"/>
<path d="M6927 3479 c7 -7 15 -10 18 -7 3 3 -2 9 -12 12 -14 6 -15 5 -6 -5z"/>
<path d="M6906 3282 c-3 -5 1 -9 9 -9 8 0 12 4 9 9 -3 4 -7 8 -9 8 -2 0 -6 -4
-9 -8z"/>
<path d="M6875 3111 c-3 -5 -2 -12 3 -15 5 -3 9 1 9 9 0 17 -3 19 -12 6z"/>
<path d="M135 3100 c-3 -5 -1 -10 4 -10 6 0 11 5 11 10 0 6 -2 10 -4 10 -3 0
-8 -4 -11 -10z"/>
<path d="M210 2619 c0 -5 5 -7 10 -4 6 3 10 8 10 11 0 2 -4 4 -10 4 -5 0 -10
-5 -10 -11z"/>
<path d="M235 2529 c-4 -6 -5 -12 -2 -15 2 -3 7 2 10 11 7 17 1 20 -8 4z"/>
<path d="M255 2500 c-3 -5 -1 -10 4 -10 6 0 11 5 11 10 0 6 -2 10 -4 10 -3 0
-8 -4 -11 -10z"/>
<path d="M6755 2489 c-4 -6 -5 -12 -2 -15 2 -3 7 2 10 11 7 17 1 20 -8 4z"/>
<path d="M295 2429 c-4 -6 -5 -12 -2 -15 2 -3 7 2 10 11 7 17 1 20 -8 4z"/>
<path d="M6714 2418 c-4 -5 -3 -12 0 -15 3 -4 6 -1 6 6 0 7 4 10 9 6 5 -3 12
-2 15 3 3 5 -2 9 -10 9 -8 0 -17 -4 -20 -9z"/>
<path d="M6655 2281 c-3 -5 0 -13 6 -17 7 -4 9 -3 5 4 -3 5 0 13 6 15 9 4 10
6 1 6 -6 1 -14 -3 -18 -8z"/>
<path d="M6596 2133 c-6 -14 -5 -15 5 -6 7 7 10 15 7 18 -3 3 -9 -2 -12 -12z"/>
<path d="M6606 2098 c3 -5 10 -6 15 -3 13 9 11 12 -6 12 -8 0 -12 -4 -9 -9z"/>
<path d="M435 2090 c3 -5 8 -10 11 -10 2 0 4 5 4 10 0 6 -5 10 -11 10 -5 0 -7
-4 -4 -10z"/>
<path d="M6571 2047 c-13 -21 -12 -21 5 -5 10 10 16 20 13 22 -3 3 -11 -5 -18
-17z"/>
<path d="M6490 1920 c0 -5 5 -10 10 -10 6 0 10 5 10 10 0 6 -4 10 -10 10 -5 0
-10 -4 -10 -10z"/>
<path d="M6493 1885 c0 -8 4 -12 9 -9 5 3 6 10 3 15 -9 13 -12 11 -12 -6z"/>
<path d="M6445 1840 c3 -5 8 -10 11 -10 2 0 4 5 4 10 0 6 -5 10 -11 10 -5 0
-7 -4 -4 -10z"/>
<path d="M559 1813 c-13 -16 -12 -17 4 -4 9 7 17 15 17 17 0 8 -8 3 -21 -13z"/>
<path d="M6411 1771 c-8 -5 -16 -17 -17 -26 -1 -9 1 -14 4 -10 4 4 6 9 4 12
-2 3 5 11 15 19 20 15 16 19 -6 5z"/>
<path d="M6370 1721 c0 -6 4 -13 10 -16 6 -3 7 1 4 9 -7 18 -14 21 -14 7z"/>
<path d="M708 1613 c6 -2 9 -10 6 -15 -4 -7 -2 -8 5 -4 13 9 5 26 -12 25 -9 0
-8 -2 1 -6z"/>
<path d="M675 1589 c-4 -6 -5 -12 -2 -15 2 -3 7 2 10 11 7 17 1 20 -8 4z"/>
<path d="M6310 1590 c0 -5 5 -10 11 -10 5 0 7 5 4 10 -3 6 -8 10 -11 10 -2 0
-4 -4 -4 -10z"/>
<path d="M770 1526 c0 -8 4 -17 9 -20 5 -4 7 3 4 14 -6 23 -13 26 -13 6z"/>
<path d="M797 1493 c-4 -3 -7 -11 -7 -17 0 -6 5 -5 12 2 6 6 9 14 7 17 -3 3
-9 2 -12 -2z"/>
<path d="M6228 1483 c6 -3 10 -9 6 -14 -8 -14 2 -11 14 4 8 10 6 13 -11 14
-12 0 -16 -1 -9 -4z"/>
<path d="M6197 1467 c-3 -8 1 -14 8 -14 7 0 11 6 8 14 -3 7 -6 13 -8 13 -2 0
-5 -6 -8 -13z"/>
<path d="M817 1449 c4 -13 8 -18 11 -10 2 7 -1 18 -6 23 -8 8 -9 4 -5 -13z"/>
<path d="M6160 1435 c-7 -9 -11 -17 -9 -20 3 -2 10 5 17 15 14 24 10 26 -8 5z"/>
<path d="M6175 1421 c-3 -5 -2 -12 3 -15 5 -3 9 1 9 9 0 17 -3 19 -12 6z"/>
<path d="M816 1401 c9 -9 34 -9 34 -1 0 5 -9 8 -20 7 -10 -1 -17 -3 -14 -6z"/>
<path d="M6115 1380 c-3 -5 -1 -10 4 -10 6 0 11 5 11 10 0 6 -2 10 -4 10 -3 0
-8 -4 -11 -10z"/>
<path d="M6147 1359 c7 -7 15 -10 18 -7 3 3 -2 9 -12 12 -14 6 -15 5 -6 -5z"/>
<path d="M894 1318 c-4 -7 -4 -10 1 -6 4 4 15 2 24 -5 14 -11 14 -10 2 6 -16
20 -18 21 -27 5z"/>
<path d="M6073 1312 c-18 -19 -16 -27 3 -11 9 7 23 14 31 15 25 4 27 13 3 11
-13 -1 -29 -8 -37 -15z"/>
<path d="M6150 1321 c0 -6 4 -13 10 -16 6 -3 7 1 4 9 -7 18 -14 21 -14 7z"/>
<path d="M6095 1289 c-4 -6 -5 -12 -2 -15 2 -3 7 2 10 11 7 17 1 20 -8 4z"/>
<path d="M6036 1275 c-9 -26 -7 -32 5 -12 6 10 9 21 6 23 -2 3 -7 -2 -11 -11z"/>
<path d="M6006 1243 c-6 -14 -5 -15 5 -6 7 7 10 15 7 18 -3 3 -9 -2 -12 -12z"/>
<path d="M990 1239 c0 -5 5 -7 10 -4 6 3 10 8 10 11 0 2 -4 4 -10 4 -5 0 -10
-5 -10 -11z"/>
<path d="M5959 1202 c-13 -15 -20 -24 -15 -20 5 4 16 2 25 -5 14 -10 14 -10 3
5 -11 14 -10 18 5 26 10 6 15 13 12 16 -3 3 -16 -6 -30 -22z"/>
<path d="M1075 1160 c3 -5 8 -10 11 -10 2 0 4 5 4 10 0 6 -5 10 -11 10 -5 0
-7 -4 -4 -10z"/>
<path d="M5940 1160 c-9 -6 -10 -10 -3 -10 6 0 15 5 18 10 8 12 4 12 -15 0z"/>
<path d="M5970 1140 c0 -5 5 -10 11 -10 5 0 7 5 4 10 -3 6 -8 10 -11 10 -2 0
-4 -4 -4 -10z"/>
<path d="M5895 1131 c-3 -5 -2 -12 3 -15 5 -3 9 1 9 9 0 17 -3 19 -12 6z"/>
<path d="M1115 1120 c-3 -6 1 -7 9 -4 18 7 21 14 7 14 -6 0 -13 -4 -16 -10z"/>
<path d="M5866 1112 c-3 -5 1 -9 9 -9 8 0 12 4 9 9 -3 4 -7 8 -9 8 -2 0 -6 -4
-9 -8z"/>
<path d="M5820 1060 c-5 -10 -10 -25 -9 -32 0 -7 5 -1 10 14 7 17 15 25 25 21
8 -3 14 -3 14 0 0 16 -31 14 -40 -3z"/>
<path d="M1212 1045 c4 -4 3 -14 -4 -22 -8 -11 -7 -12 6 -7 19 7 21 20 4 30
-7 4 -10 4 -6 -1z"/>
<path d="M1235 1009 c-4 -6 -5 -12 -2 -15 2 -3 7 2 10 11 7 17 1 20 -8 4z"/>
<path d="M5777 1007 c-3 -8 -2 -20 3 -26 5 -9 8 -4 8 13 0 29 -3 32 -11 13z"/>
<path d="M1250 979 c0 -5 5 -7 10 -4 6 3 10 8 10 11 0 2 -4 4 -10 4 -5 0 -10
-5 -10 -11z"/>
<path d="M5738 978 c5 -5 16 -8 23 -6 8 3 3 7 -10 11 -17 4 -21 3 -13 -5z"/>
<path d="M1277 973 c-11 -11 -8 -20 7 -20 8 0 12 6 9 14 -6 15 -7 15 -16 6z"/>
<path d="M5695 940 c3 -5 8 -10 11 -10 2 0 4 5 4 10 0 6 -5 10 -11 10 -5 0 -7
-4 -4 -10z"/>
<path d="M1330 931 c0 -6 4 -13 10 -16 6 -3 7 1 4 9 -7 18 -14 21 -14 7z"/>
<path d="M1296 907 c3 -10 9 -15 12 -12 3 3 0 11 -7 18 -10 9 -11 8 -5 -6z"/>
<path d="M1384 874 c-18 -15 -18 -15 2 -5 12 6 25 7 29 3 5 -4 5 -1 1 6 -9 15
-8 15 -32 -4z"/>
<path d="M5628 883 c7 -3 16 -2 19 1 4 3 -2 6 -13 5 -11 0 -14 -3 -6 -6z"/>
<path d="M5619 868 c-3 -6 -6 -48 -4 -48 1 0 9 8 16 17 12 14 12 16 0 8 -11
-6 -13 -4 -8 8 5 13 1 25 -4 15z"/>
<path d="M1401 853 c-1 -17 16 -25 25 -12 4 7 3 9 -4 5 -5 -3 -13 0 -15 6 -4
9 -6 10 -6 1z"/>
<path d="M5560 840 c0 -5 5 -10 10 -10 6 0 10 5 10 10 0 6 -4 10 -10 10 -5 0
-10 -4 -10 -10z"/>
<path d="M1430 821 c0 -6 6 -8 14 -5 9 4 13 -2 11 -20 -2 -15 0 -24 4 -21 14
8 4 50 -12 53 -9 2 -17 -1 -17 -7z"/>
<path d="M5524 814 c-18 -14 -18 -15 4 -4 12 6 22 13 22 15 0 8 -5 6 -26 -11z"/>
<path d="M1510 790 c8 -5 20 -10 25 -10 6 0 3 5 -5 10 -8 5 -19 10 -25 10 -5
0 -3 -5 5 -10z"/>
<path d="M5495 780 c3 -5 8 -10 11 -10 2 0 4 5 4 10 0 6 -5 10 -11 10 -5 0 -7
-4 -4 -10z"/>
<path d="M5413 725 c0 -8 4 -15 9 -15 4 0 8 4 8 9 0 6 -4 12 -8 15 -5 3 -9 -1
-9 -9z"/>
<path d="M1614 708 c-4 -6 -3 -8 4 -4 5 3 12 1 14 -6 3 -8 6 -9 11 -1 4 6 0
13 -8 17 -8 3 -17 0 -21 -6z"/>
<path d="M5356 695 c-3 -9 -11 -13 -17 -9 -8 4 -9 3 -5 -4 4 -7 11 -12 16 -12
9 0 23 31 16 37 -2 2 -6 -3 -10 -12z"/>
<path d="M5392 705 c4 -4 0 -13 -9 -20 -13 -10 -14 -13 -2 -20 8 -5 11 -5 7 0
-4 4 0 13 9 20 13 10 14 13 2 20 -8 5 -11 5 -7 0z"/>
<path d="M5446 702 c-3 -5 1 -9 9 -9 8 0 12 4 9 9 -3 4 -7 8 -9 8 -2 0 -6 -4
-9 -8z"/>
<path d="M1649 683 c-13 -16 -12 -17 4 -4 16 13 21 21 13 21 -2 0 -10 -8 -17
-17z"/>
<path d="M1590 679 c0 -5 5 -7 10 -4 6 3 10 8 10 11 0 2 -4 4 -10 4 -5 0 -10
-5 -10 -11z"/>
<path d="M5416 658 c3 -5 10 -6 15 -3 13 9 11 12 -6 12 -8 0 -12 -4 -9 -9z"/>
<path d="M1719 643 c-8 -9 -9 -14 -2 -10 6 4 13 2 15 -5 3 -8 7 -6 11 5 9 23
-8 30 -24 10z"/>
<path d="M1755 630 c-4 -6 -4 -14 -1 -17 3 -4 6 0 6 8 0 12 2 12 10 -1 5 -8
12 -12 15 -9 3 4 -1 12 -9 18 -10 9 -16 9 -21 1z"/>
<path d="M5311 627 c-8 -10 -7 -14 2 -14 8 0 14 6 14 14 0 7 -1 13 -2 13 -2 0
-8 -6 -14 -13z"/>
<path d="M1706 602 c-2 -4 4 -8 14 -8 10 0 16 4 14 8 -3 4 -9 8 -14 8 -5 0
-11 -4 -14 -8z"/>
<path d="M1790 590 c-6 -11 -9 -20 -8 -20 2 0 11 9 21 20 9 11 13 20 7 20 -5
0 -14 -9 -20 -20z"/>
<path d="M5210 606 c0 -2 7 -7 16 -10 8 -3 12 -2 9 4 -6 10 -25 14 -25 6z"/>
<path d="M1836 590 c7 -8 14 -24 17 -35 4 -19 5 -19 6 1 0 12 -7 28 -16 35
-16 12 -17 12 -7 -1z"/>
<path d="M1817 574 c5 -13 3 -15 -8 -9 -11 7 -12 6 -2 -7 7 -8 11 -18 8 -21
-3 -4 -2 -5 2 -2 11 9 13 44 3 50 -6 4 -7 -1 -3 -11z"/>
<path d="M5165 579 c-4 -6 -5 -12 -2 -15 2 -3 7 2 10 11 7 17 1 20 -8 4z"/>
<path d="M5293 575 c0 -8 4 -12 9 -9 5 3 6 10 3 15 -9 13 -12 11 -12 -6z"/>
<path d="M5103 548 c-12 -15 -13 -49 -2 -42 5 2 5 12 2 21 -5 12 -3 14 7 8 8
-5 11 -4 6 3 -3 6 2 13 11 15 15 4 15 5 2 6 -9 0 -21 -5 -26 -11z"/>
<path d="M1873 530 c-1 -11 2 -20 7 -20 4 0 7 7 6 15 -3 23 -12 26 -13 5z"/>
<path d="M5150 541 c0 -6 4 -13 10 -16 6 -3 7 1 4 9 -7 18 -14 21 -14 7z"/>
<path d="M1973 504 c0 -16 6 -17 25 -5 11 6 9 9 -5 13 -12 3 -20 0 -20 -8z"/>
<path d="M5021 484 c0 -11 3 -14 6 -6 3 7 2 16 -1 19 -3 4 -6 -2 -5 -13z"/>
<path d="M1936 478 c3 -5 10 -6 15 -3 13 9 11 12 -6 12 -8 0 -12 -4 -9 -9z"/>
<path d="M5076 482 c-3 -5 1 -9 9 -9 8 0 12 4 9 9 -3 4 -7 8 -9 8 -2 0 -6 -4
-9 -8z"/>
<path d="M5110 486 c0 -2 7 -7 16 -10 8 -3 12 -2 9 4 -6 10 -25 14 -25 6z"/>
<path d="M1990 460 c0 -5 5 -10 11 -10 5 0 7 5 4 10 -3 6 -8 10 -11 10 -2 0
-4 -4 -4 -10z"/>
<path d="M4921 461 c-8 -5 -9 -11 -3 -15 5 -3 12 1 16 9 6 17 6 18 -13 6z"/>
<path d="M4975 461 c-3 -5 0 -13 6 -17 8 -5 9 -3 4 6 -6 10 -1 11 21 6 21 -5
25 -4 14 4 -19 12 -37 13 -45 1z"/>
<path d="M2061 453 c-1 -17 16 -25 25 -12 4 7 3 9 -4 5 -5 -3 -13 0 -15 6 -4
9 -6 10 -6 1z"/>
<path d="M4952 436 c1 -14 5 -23 9 -20 7 4 0 44 -7 44 -2 0 -3 -11 -2 -24z"/>
<path d="M4890 440 c0 -5 5 -10 11 -10 5 0 7 5 4 10 -3 6 -8 10 -11 10 -2 0
-4 -4 -4 -10z"/>
<path d="M4915 420 c-16 -7 -17 -9 -3 -9 9 -1 20 4 23 9 7 11 7 11 -20 0z"/>
<path d="M2140 410 c0 -5 -8 -7 -17 -4 -17 5 -17 5 0 -6 9 -6 14 -17 11 -23
-4 -7 -3 -9 1 -4 10 8 18 47 10 47 -3 0 -5 -4 -5 -10z"/>
<path d="M4823 407 c-3 -5 -2 -11 1 -14 3 -4 6 -1 6 6 0 7 4 10 8 7 4 -2 14
-1 22 4 11 7 9 9 -8 7 -13 -1 -26 -5 -29 -10z"/>
<path d="M4792 388 c2 -6 10 -13 16 -14 7 -1 8 0 2 3 -5 2 -8 9 -4 14 3 5 0 9
-6 9 -7 0 -10 -5 -8 -12z"/>
<path d="M2261 373 c-1 -6 -4 -20 -7 -30 -5 -17 -5 -17 6 0 6 10 9 23 6 30 -3
9 -5 9 -5 0z"/>
<path d="M2331 353 c-2 -20 16 -24 30 -5 13 15 12 16 -3 4 -13 -10 -17 -10
-21 0 -4 9 -6 9 -6 1z"/>
<path d="M2215 340 c3 -5 8 -10 11 -10 2 0 4 5 4 10 0 6 -5 10 -11 10 -5 0 -7
-4 -4 -10z"/>
<path d="M2293 343 c4 -3 -1 -16 -10 -27 -18 -21 -18 -21 4 -2 20 16 23 36 6
36 -4 0 -3 -3 0 -7z"/>
<path d="M4712 341 c-11 -7 -10 -9 3 -14 9 -4 14 -3 10 2 -3 5 1 12 7 14 7 3
9 6 3 6 -5 0 -16 -3 -23 -8z"/>
<path d="M4616 328 c5 -7 2 -9 -8 -6 -8 4 -20 -2 -26 -13 -8 -12 -8 -19 -2
-19 5 0 10 4 10 9 0 5 9 11 20 14 21 5 28 27 9 27 -5 0 -7 -5 -3 -12z"/>
<path d="M4645 331 c-3 -5 0 -13 6 -17 7 -4 9 -3 5 4 -3 5 0 13 6 15 9 4 10 6
1 6 -6 1 -14 -3 -18 -8z"/>
<path d="M2316 322 c-3 -5 1 -9 9 -9 8 0 12 4 9 9 -3 4 -7 8 -9 8 -2 0 -6 -4
-9 -8z"/>
<path d="M2398 313 c7 -3 16 -2 19 1 4 3 -2 6 -13 5 -11 0 -14 -3 -6 -6z"/>
<path d="M2443 313 c-15 -5 -17 -23 -4 -23 5 0 11 7 15 15 3 8 4 15 3 14 -1 0
-8 -3 -14 -6z"/>
<path d="M2360 300 c-9 -6 -10 -10 -3 -10 6 0 15 5 18 10 8 12 4 12 -15 0z"/>
<path d="M4504 288 c-10 -12 -13 -18 -5 -13 11 6 13 4 8 -9 -4 -11 -3 -15 4
-11 6 4 8 13 5 20 -3 8 0 16 7 18 7 2 9 7 6 11 -3 3 -14 -4 -25 -16z"/>
<path d="M2520 280 c0 -5 5 -10 10 -10 6 0 10 5 10 10 0 6 -4 10 -10 10 -5 0
-10 -4 -10 -10z"/>
<path d="M2555 265 c1 -14 6 -29 10 -33 4 -4 4 4 0 16 -6 22 -5 23 15 12 14
-8 19 -17 15 -28 -5 -14 -4 -15 7 -4 10 10 7 17 -14 37 -34 31 -37 31 -33 0z"/>
<path d="M4445 279 c-4 -6 -5 -12 -2 -15 2 -3 7 2 10 11 7 17 1 20 -8 4z"/>
<path d="M4535 280 c-3 -6 1 -7 9 -4 18 7 21 14 7 14 -6 0 -13 -4 -16 -10z"/>
<path d="M2608 267 c8 -9 22 -19 32 -22 12 -4 17 -12 14 -23 -5 -14 -4 -15 5
-2 8 11 7 18 -4 26 -8 6 -14 13 -12 15 1 2 0 3 -2 2 -2 -1 -13 3 -25 9 -19 10
-20 10 -8 -5z"/>
<path d="M4410 270 c0 -6 -4 -8 -10 -5 -5 3 -10 1 -10 -4 0 -13 10 -14 29 -2
9 6 10 11 2 15 -6 4 -11 2 -11 -4z"/>
<path d="M2676 247 c3 -10 9 -15 12 -12 3 3 0 11 -7 18 -10 9 -11 8 -5 -6z"/>
<path d="M4475 249 c-4 -6 -5 -12 -2 -15 2 -3 7 2 10 11 7 17 1 20 -8 4z"/>
<path d="M4297 237 c-7 -18 8 -33 18 -17 10 16 25 2 19 -18 -5 -14 -4 -14 4
-2 7 9 7 19 2 26 -6 6 -6 15 -2 20 4 4 0 3 -10 -4 -13 -10 -17 -10 -20 0 -3 8
-6 6 -11 -5z"/>
<path d="M4416 234 c-5 -14 -4 -15 9 -4 17 14 19 20 6 20 -5 0 -12 -7 -15 -16z"/>
<path d="M4256 228 c3 -4 -2 -8 -10 -8 -9 0 -16 -5 -16 -10 0 -7 6 -7 19 0 26
13 34 27 16 27 -8 0 -12 -4 -9 -9z"/>
<path d="M2810 210 c6 -11 13 -20 16 -20 2 0 0 9 -6 20 -6 11 -13 20 -16 20
-2 0 0 -9 6 -20z"/>
<path d="M4493 215 c0 -8 4 -12 9 -9 5 3 6 10 3 15 -9 13 -12 11 -12 -6z"/>
<path d="M2678 213 c7 -3 16 -2 19 1 4 3 -2 6 -13 5 -11 0 -14 -3 -6 -6z"/>
<path d="M2715 210 c3 -5 8 -10 11 -10 2 0 4 5 4 10 0 6 -5 10 -11 10 -5 0 -7
-4 -4 -10z"/>
<path d="M2841 203 c7 -10 14 -19 15 -21 1 -2 4 4 8 13 3 9 2 13 -4 10 -6 -3
-10 -1 -10 4 0 6 -5 11 -11 11 -8 0 -7 -6 2 -17z"/>
<path d="M4210 201 c0 -6 4 -13 10 -16 6 -3 7 1 4 9 -7 18 -14 21 -14 7z"/>
<path d="M4270 200 c0 -5 5 -10 10 -10 6 0 10 5 10 10 0 6 -4 10 -10 10 -5 0
-10 -4 -10 -10z"/>
<path d="M2877 194 c-4 -4 -7 -11 -7 -15 0 -9 27 -5 37 6 4 4 3 5 -4 2 -6 -4
-13 -2 -15 4 -2 5 -7 7 -11 3z"/>
<path d="M2790 179 c0 -5 5 -7 10 -4 6 3 10 8 10 11 0 2 -4 4 -10 4 -5 0 -10
-5 -10 -11z"/>
<path d="M3990 181 c0 -5 5 -13 10 -16 6 -3 10 -2 10 4 0 5 -4 13 -10 16 -5 3
-10 2 -10 -4z"/>
<path d="M2815 169 c-4 -6 -5 -12 -2 -15 2 -3 7 2 10 11 7 17 1 20 -8 4z"/>
<path d="M3031 167 c-8 -10 -7 -14 4 -14 8 0 12 4 9 8 -2 4 2 10 8 12 8 4 9 6
2 6 -6 1 -17 -5 -23 -12z"/>
<path d="M4037 160 c-3 -11 -2 -22 2 -24 4 -3 8 6 9 20 2 29 -4 31 -11 4z"/>
<path d="M3078 163 c7 -3 16 -2 19 1 4 3 -2 6 -13 5 -11 0 -14 -3 -6 -6z"/>
<path d="M3170 158 c0 -11 12 -10 30 2 12 7 10 9 -8 7 -12 0 -22 -5 -22 -9z"/>
<path d="M3850 158 c0 -4 4 -8 9 -8 6 0 12 4 15 8 3 5 -1 9 -9 9 -8 0 -15 -4
-15 -9z"/>
<path d="M2976 151 c-4 -5 3 -7 14 -4 23 6 26 13 6 13 -8 0 -17 -4 -20 -9z"/>
<path d="M3250 151 c0 -5 5 -13 10 -16 6 -3 10 -2 10 4 0 5 -4 13 -10 16 -5 3
-10 2 -10 -4z"/>
<path d="M3464 134 c-9 -13 -14 -27 -10 -31 3 -3 6 0 6 7 0 9 7 7 22 -6 14
-12 18 -13 10 -3 -6 9 -8 20 -4 24 4 5 1 5 -5 1 -7 -4 -13 -3 -13 2 0 16 13
22 27 11 8 -7 13 -8 13 -1 0 23 -31 20 -46 -4z"/>
<path d="M3907 147 c-3 -8 1 -14 8 -14 7 0 11 6 8 14 -3 7 -6 13 -8 13 -2 0
-5 -6 -8 -13z"/>
<path d="M3093 130 c-1 -11 2 -20 7 -20 4 0 7 7 6 15 -3 23 -12 26 -13 5z"/>
<path d="M3196 134 c-23 -22 -20 -31 3 -10 18 17 19 17 24 -1 4 -15 5 -16 6
-1 2 24 -15 31 -33 12z"/>
<path d="M3435 140 c3 -5 8 -10 11 -10 2 0 4 5 4 10 0 6 -5 10 -11 10 -5 0 -7
-4 -4 -10z"/>
<path d="M4070 139 c0 -5 5 -7 10 -4 6 3 10 8 10 11 0 2 -4 4 -10 4 -5 0 -10
-5 -10 -11z"/>
<path d="M4104 142 c4 -3 14 -7 22 -8 9 -1 13 0 10 4 -4 3 -14 7 -22 8 -9 1
-13 0 -10 -4z"/>
<path d="M3030 136 c0 -2 8 -10 18 -17 15 -13 16 -12 3 4 -13 16 -21 21 -21
13z"/>
<path d="M3133 125 c0 -8 4 -12 9 -9 5 3 6 10 3 15 -9 13 -12 11 -12 -6z"/>
<path d="M3370 129 c0 -5 -6 -7 -12 -3 -7 4 -9 3 -5 -1 13 -15 36 -14 30 1 -6
17 -13 18 -13 3z"/>
<path d="M3533 125 c0 -8 4 -15 9 -15 4 0 8 7 8 15 0 8 -4 15 -8 15 -5 0 -9
-7 -9 -15z"/>
<path d="M3770 130 c-9 -6 -10 -10 -3 -10 6 0 15 5 18 10 8 12 4 12 -15 0z"/>
<path d="M3868 133 c7 -3 16 -2 19 1 4 3 -2 6 -13 5 -11 0 -14 -3 -6 -6z"/>
<path d="M3285 122 c4 -4 12 -7 18 -7 7 -1 11 -7 9 -14 -1 -7 2 -9 9 -6 13 9
-3 28 -27 31 -9 1 -13 -1 -9 -4z"/>
<path d="M3410 126 c0 -2 7 -7 16 -10 8 -3 12 -2 9 4 -6 10 -25 14 -25 6z"/>
<path d="M3613 115 c0 -8 4 -12 9 -9 4 3 8 9 8 15 0 5 -4 9 -8 9 -5 0 -9 -7
-9 -15z"/>
<path d="M3694 118 c-4 -7 -4 -10 1 -6 4 4 14 0 21 -10 12 -15 12 -15 7 6 -6
24 -18 29 -29 10z"/>
<path d="M3556 93 c-6 -14 -5 -15 5 -6 7 7 10 15 7 18 -3 3 -9 -2 -12 -12z"/>
<path d="M3815 100 c3 -5 8 -10 11 -10 2 0 4 5 4 10 0 6 -5 10 -11 10 -5 0 -7
-4 -4 -10z"/>
<path d="M3895 100 c-3 -5 -1 -10 4 -10 6 0 11 5 11 10 0 6 -2 10 -4 10 -3 0
-8 -4 -11 -10z"/>
<path d="M3467 79 c7 -7 15 -10 18 -7 3 3 -2 9 -12 12 -14 6 -15 5 -6 -5z"/>
</g>
</svg>
