<?xml version="1.0" encoding="utf-8"?>
<!-- Generator: Adobe Illustrator 17.0.0, SVG Export Plug-In . SVG Version: 6.00 Build 0)  -->
<!DOCTYPE svg PUBLIC "-//W3C//DTD SVG 1.1//EN" "http://www.w3.org/Graphics/SVG/1.1/DTD/svg11.dtd">
<svg version="1.1" id="Livello_1" xmlns="http://www.w3.org/2000/svg" xmlns:xlink="http://www.w3.org/1999/xlink" x="0px" y="0px"
	 width="165.323px" height="30.502px" viewBox="0 0 165.323 30.502" enable-background="new 0 0 165.323 30.502"
	 xml:space="preserve">
<path fill="#FFFFFF" d="M1.07,22.663v6.959l-0.595,0.833L0,29.622V0h9.428c3.192,0,5.611,0.659,7.257,1.978
	c1.646,1.319,2.469,3.307,2.469,5.963c0,1.686-0.516,3.203-1.547,4.551c-1.031,1.349-2.448,2.221-4.253,2.617l-0.833,0.268
	c0.437,0.933,1.705,3.302,3.808,7.108c2.102,3.807,3.311,6.107,3.628,6.9v1.07l-0.922-0.506c-0.476-0.753-1.805-3.143-3.985-7.167
	l-3.837-7.02c-0.02-0.06-0.039-0.079-0.059-0.06h-0.03c-0.119,0-0.466,0-1.041,0H1.07C1.07,16.278,1.07,18.599,1.07,22.663z
	 M5.146,14.603H9.22c3.093,0,5.339-0.624,6.736-1.873s2.097-2.846,2.097-4.789c0-2.26-0.709-3.965-2.126-5.115
	c-1.418-1.149-3.584-1.725-6.499-1.725H1.07v13.502C1.428,14.603,2.785,14.603,5.146,14.603z"/>
<path fill="#FFFFFF" d="M90.613,15.929h4.104c2.874,0,5.011-0.688,6.409-2.067c1.397-1.378,2.097-3.138,2.097-5.279
	c0-2.2-0.694-3.989-2.082-5.368c-1.389-1.378-3.529-2.066-6.424-2.066h-8.18v14.781C86.874,15.929,88.233,15.929,90.613,15.929z
	 M86.537,17.029c0,0.535,0,2.667,0,6.395v6.395l-0.535,0.684l-0.564-0.684V0.047h9.279c3.152,0,5.541,0.758,7.167,2.275
	c1.626,1.517,2.439,3.594,2.439,6.23c0,2.638-0.813,4.709-2.439,6.216s-4.015,2.261-7.167,2.261H86.537z"/>
<path fill="#FFFFFF" d="M155.003,15.186h-7.644v14.187h17.398l0.564,0.624l-0.564,0.506h-18.529V0.047h18.529l0.564,0.595
	l-0.564,0.535H147.36v12.878h15.257l0.476,0.595l-0.476,0.536C161.982,15.186,159.444,15.186,155.003,15.186z"/>
<path opacity="0.5" fill="#FFFFFF" d="M41.042,28.529l-1.271-6.259l0.55-3.389l0.01,0l-0.074-7.596l0.781-6.697l-0.09-0.011
	l0.037-0.044l-5.008-4.168l-0.043,0.051l-0.038-0.031L31.794,5.37l0.053,0.044l-0.083,0.021l2.124,8.187l-1.956,6.331l0.066,0.02
	l-0.045,0.032l3.692,5.272l-2.585,4.045l0.154,0.099l-0.002,0.012l0.031,0.006l0.07,0.045l0.018-0.028l2.584,0.499l0.037-0.197
	l-2.505-0.483l2.506-3.92l-0.126-0.081l0.123-0.086l-3.5-4.998l3.333,1.018l0.088-0.287l-3.584-1.095l1.844-5.966l1.615,1.039
	l0.162-0.252l-1.732-1.114l-2.031-7.828l3.525,2.011l0.148-0.261l-3.641-2.078l3.802-4.621l4.684,3.898l-4.503,4.212l0.058,0.062
	l-0.033,0.055l3.75,2.253l-3.776,3.568l0.103,0.109l-0.002,0.002l3.629,3.875l-3.55,0.728l0.03,0.146l-0.094,0.117l3.158,2.536
	l-3.432,7.362l0.224,0.105l0.026,0.104l4.763-1.203l-0.036-0.142L41.042,28.529z M36.587,8.876l4.095-3.83l-0.686,5.878
	L36.587,8.876z M36.58,14.819l3.38-3.194l0.067,6.874L36.58,14.819z M36.711,19.746l3.274-0.671l-0.474,2.92L36.711,19.746z
	 M36.396,29.541l3.166-6.792l1.157,5.7L36.396,29.541z"/>
<path opacity="0.5" fill="#FFFFFF" d="M68.717,15.281l0.095,0.057l0.154-0.257l-0.141-0.085L68.11,9.618l3.426-3.385l-0.211-0.214
	l-3.342,3.303l-5.024-8.481l-0.18,0.107l-0.044-0.02l-0.028,0.062l-0.006,0.003l0.002,0.004L59.13,9.008l-4.26-8.361l-0.268,0.136
	l4.313,8.465L54.882,16.8l0.265,0.142l0.023-0.044l4.51,6.493l-5.198,6.252l0.115,0.096l0.081,0.127l11.721-7.47l-0.017-0.027
	l0.055-0.01l-0.002-0.013l0.009,0.006l2.672-4.021l-0.008-0.005l0.032-0.004L68.717,15.281z M66.259,22.085l-6.107,1.088
	l3.085-6.033l3.044,4.735l-0.013,0.197L66.259,22.085z M66.92,16.626l1.835,1.702l-2.154,3.242L66.92,16.626z M59.702,9.519
	l8.117,0.192l0.676,5.088L59.702,9.519z M67.685,9.408l-8.317-0.196l3.523-7.896L67.685,9.408z M59.113,9.515l9.433,5.664
	l0.004,0.032l-0.143,0.02l0.376,2.713l-1.838-1.703l0.003-0.047l-0.3-0.02l-0.335,5.198l-2.965-4.613l-0.126,0.081l-0.134-0.068
	l-3.24,6.335l-4.52-6.506L59.113,9.515z M59.97,23.51l5.718-1.019l-10.361,6.603L59.97,23.51z"/>
<path opacity="0.5" fill="#FFFFFF" d="M133.131,30.07l0.234-0.188l-3.632-4.529l0.937-7.284h0.01v-7.547h-0.019l-2.727-8.738
	l-0.023,0.007l0.009-0.127l-10.167-0.698l-0.011,0.149l-0.089,0.121l5.912,4.368l-5.557-0.649l-0.486-0.955l-0.268,0.136
	l2.991,5.874l-2.54,3.676l0.145,0.101l0,0.001l0.003,0.001l0.099,0.069l0.013-0.019l6.628,2.96l-3.171,6.564l-3.607-6.042
	l-0.258,0.154l3.698,6.193l-3.573,5.933l0.258,0.154l3.509-5.827l4.916,5.932l-0.021,0.031l0.108,0.073l0.088,0.107l0.031-0.026
	l0.021,0.014l0.049-0.072l0.13-0.108l-0.031-0.038l2.848-4.193L133.131,30.07z M130.121,10.661l-4.234,3.436l-5-3.9L130.121,10.661z
	 M125.946,14.528l3.985,3.247l-4.924-1.154L125.946,14.528z M130.049,10.357l-9.312-0.469l3.392-3.867L130.049,10.357z
	 M125.704,14.334l-0.933,2.08l-3.733-5.719L125.704,14.334z M130.354,18.183l-0.867,6.74l-4.397-7.975L130.354,18.183z
	 M130.379,17.754l-4.252-3.465l4.252-3.451V17.754z M124.332,5.797l3.392-3.675l2.492,7.985L124.332,5.797z M127.489,1.935
	l-3.4,3.684l-5.844-4.318L127.489,1.935z M120.454,9.757l-2.281-4.48l5.634,0.658L120.454,9.757z M120.417,10.292l3.974,6.089
	l-6.252-2.792L120.417,10.292z M129.245,25.107l-7.6-1.515l3.16-6.54L129.245,25.107z M129.368,25.438l-2.828,4.164l-4.694-5.664
	L129.368,25.438z"/>
<path opacity="0.5" fill="#FFFFFF" d="M100.373,15.235l0.095,0.057l0.154-0.257l-0.142-0.085l-0.714-5.378l3.427-3.385l-0.211-0.214
	l-3.343,3.303l-5.024-8.481l-0.179,0.107l-0.043-0.019l-0.027,0.061l-0.008,0.005l0.003,0.006l-3.574,8.008L86.525,0.6l-0.268,0.136
	l4.314,8.465l-4.033,7.552l0.264,0.142l0.024-0.045l4.51,6.494l-5.198,6.252l0.115,0.096l0.081,0.127l11.722-7.47l-0.017-0.027
	l0.055-0.01l-0.002-0.013l0.009,0.006l2.671-4.021l-0.008-0.005l0.032-0.004L100.373,15.235z M97.916,22.038l-6.108,1.088
	l3.086-6.033l3.044,4.735l-0.013,0.197L97.916,22.038z M98.575,16.578l1.836,1.702l-2.154,3.244L98.575,16.578z M91.357,9.472
	l8.118,0.192l0.676,5.088L91.357,9.472z M99.34,9.361l-8.317-0.196l3.523-7.896L99.34,9.361z M90.768,9.468l9.434,5.664l0.004,0.032
	l-0.143,0.02l0.376,2.714L98.6,16.193l0.003-0.047l-0.299-0.02l-0.335,5.198l-2.965-4.613l-0.126,0.081l-0.134-0.068l-3.24,6.335
	l-4.52-6.507L90.768,9.468z M91.626,23.463l5.718-1.018l-10.361,6.603L91.626,23.463z"/>
<path opacity="0.5" fill="#FFFFFF" d="M5.32,21.899l8.215-2.049l-0.072-0.291l-8.734,2.179L4.626,21.71L1.76,15.197l-0.109,0.048
	l2.262-6.716l6.884,6.567l-0.26,0.427l0.256,0.156l7.083-11.625l-0.128-0.078l-0.045-0.143L4.266,8.102l4.77-7.437L8.783,0.503
	L3.919,8.088L0.734,2.82L0.477,2.976l3.205,5.301l-2.451,7.277l0.284,0.096l0.05-0.15l2.829,6.43l-3.675,7.144l0.133,0.068
	l0.037,0.146l15.833-3.979l-0.037-0.146l0.04-0.145L5.32,21.899z M4.239,8.426L17.412,4.24l-6.455,10.594L4.239,8.426z
	 M16.095,25.157L1.138,28.916l3.525-6.853l0.063-0.016L16.095,25.157z"/>
<path opacity="0.5" fill="#FFFFFF" d="M160.545,20.007l0.135-0.066l-2.567-5.16l1.922-5.857l-0.052-0.017l0.026-0.016l0.033,0.004
	l0.003-0.026l0.013-0.008l-0.01-0.016l0.946-8.008l-0.299-0.035l-0.901,7.626l-4.674-7.687l-0.128,0.078l-0.142-0.05l-2.97,8.379
	l-4.718-7.037l-0.25,0.167l4.849,7.232l-4.484,4.954l0.223,0.201l4.508-4.981l5.746,5.135l-5.862,8.696l-0.052-0.068l-4.542-7.734
	l-0.258,0.152l4.601,7.835l-3.372,6.583l0.268,0.137l3.312-6.466l4.748,6.269l0.238-0.182l-0.52-0.687l4.365-9.284L160.545,20.007z
	 M160.34,19.932l-7.98,3.424l5.571-8.265L160.34,19.932z M159.659,9.109l-1.778,5.42l-5.472-4.89L159.659,9.109z M152.125,9.36
	l2.904-8.193l4.646,7.641L152.125,9.36z M152.104,23.793l8.138-3.492l-4.13,8.784L152.104,23.793z"/>
<path fill="#FFFFFF" d="M36.217,30.175l-0.268,0.327l-0.565-0.684V0.582l0.565-0.476l0.535,0.476v29.236
	C36.465,29.857,36.375,29.977,36.217,30.175z"/>
<path fill="#FFFFFF" d="M58.908,15.929h4.104c2.874,0,5.011-0.688,6.409-2.067c1.397-1.378,2.097-3.138,2.097-5.279
	c0-2.2-0.694-3.989-2.082-5.368c-1.389-1.378-3.529-2.066-6.424-2.066h-8.18v14.781C55.169,15.929,56.528,15.929,58.908,15.929z
	 M54.832,17.029c0,0.535,0,2.667,0,6.395v6.395l-0.535,0.684l-0.564-0.684V0.047h9.279c3.152,0,5.541,0.758,7.167,2.275
	c1.626,1.517,2.439,3.594,2.439,6.23c0,2.638-0.813,4.709-2.439,6.216s-4.015,2.261-7.167,2.261H54.832z"/>
<path fill="#FFFFFF" d="M125.677,29.401h7.674l0.446,0.565l-0.446,0.535h-16.507V0.522l0.565-0.476l0.564,0.476v28.879
	C118.609,29.401,121.176,29.401,125.677,29.401z"/>
</svg>
