<?xml version="1.0" encoding="utf-8"?>
<!-- Generator: Adobe Illustrator 17.0.0, SVG Export Plug-In . SVG Version: 6.00 Build 0)  -->
<!DOCTYPE svg PUBLIC "-//W3C//DTD SVG 1.1//EN" "http://www.w3.org/Graphics/SVG/1.1/DTD/svg11.dtd">
<svg version="1.1" id="Livello_1" xmlns="http://www.w3.org/2000/svg" xmlns:xlink="http://www.w3.org/1999/xlink" x="0px" y="0px"
	 width="16px" height="16px" viewBox="0 0 16 16" enable-background="new 0 0 16 16" xml:space="preserve">
<g>
	<g>
		<g>
			<path fill="#1ABAEB" d="M7.25,0.842c0,4.772,0,9.544,0,14.316c0,0.967,1.5,0.967,1.5,0c0-4.772,0-9.544,0-14.316
				C8.75-0.125,7.25-0.125,7.25,0.842L7.25,0.842z"/>
		</g>
	</g>
	<g>
		<g>
			<path fill="#1ABAEB" d="M10.918,4.204c0,2.531,0,5.061,0,7.592c0,0.967,1.5,0.967,1.5,0c0-2.531,0-5.061,0-7.592
				C12.418,3.237,10.918,3.237,10.918,4.204L10.918,4.204z"/>
		</g>
	</g>
	<g>
		<g>
			<path fill="#1ABAEB" d="M3.582,4.204c0,2.531,0,5.061,0,7.592c0,0.967,1.5,0.967,1.5,0c0-2.531,0-5.061,0-7.592
				C5.082,3.237,3.582,3.237,3.582,4.204L3.582,4.204z"/>
		</g>
	</g>
</g>
</svg>
